<svg xmlns="http://www.w3.org/2000/svg" viewBox="0 0 1140 957.76" width="1140" height="957.76" xmlns:c2pa="http://c2pa.org/manifest"><metadata><c2pa:manifest>AAAWgmp1bWIAAAAeanVtZGMycGEAEQAQgAAAqgA4m3EDYzJwYQAAABZcanVtYgAAAEdqdW1kYzJtYQARABCAAACqADibcQN1cm46YzJwYTozNGUwNDJjMy04NzQ3LTRmYzAtOWZmMy0xMDA3OTY2ZjgwOTMAAAADl2p1bWIAAAApanVtZGMyYXMAEQAQgAAAqgA4m3EDYzJwYS5hc3NlcnRpb25zAAAAALxqdW1iAAAARGp1bWRjYm9yABEAEIAAAKoAOJtxE2MycGEuaW5ncmVkaWVudC52MwAAAAAYYzJzaEbXNVSmzDuBy2tM3iRcsoUAAABwY2JvcqNpZGM6Zm9ybWF0bWltYWdlL3N2Zyt4bWxqaW5zdGFuY2VJRHgseG1wOmlpZDplNTk1OTYzZS0zMTdjLTQ4YmEtODMwZi0zZmU4NWU0YTQzNzRscmVsYXRpb25zaGlwaHBhcmVudE9mAAAB4mp1bWIAAABBanVtZGNib3IAEQAQgAAAqgA4m3ETYzJwYS5hY3Rpb25zLnYyAAAAABhjMnNo+g9r7UuEriLNQI1sfq7sEwAAAZljYm9yomdhY3Rpb25zgqJmYWN0aW9ua2MycGEub3BlbmVkanBhcmFtZXRlcnOha2luZ3JlZGllbnRzgaJjdXJseC1zZWxmI2p1bWJmPWMycGEuYXNzZXJ0aW9ucy9jMnBhLmluZ3JlZGllbnQudjNkaGFzaFgglwXR5eMigb9irvNhN1Evgh91aRkTDKz+6t24dVhqgFSkZmFjdGlvbngdY29tLmFudGhyb3BpYy5jbGF1ZGUucHJvdmlkZWRqcGFyYW1ldGVyc6F4H2NvbS5hbnRocm9waWMub3JpZ2luLWNvbmZpZGVuY2VndW5rbm93bmtkZXNjcmlwdGlvbnhmQ2xhdWRlIHByb3ZpZGVkIHRoaXMgZmlsZSBhdCB0aGUgcmVxdWVzdCBvZiBhIHVzZXIgYW5kIG1heSBoYXZlIGNyZWF0ZWQgb3IgbW9kaWZpZWQgdGhlIGZpbGUgY29udGVudHMubXNvZnR3YXJlQWdlbnShZG5hbWVmQ2xhdWRlcmFsbEFjdGlvbnNJbmNsdWRlZPUAAADIanVtYgAAAEBqdW1kY2JvcgARABCAAACqADibcRNjMnBhLmhhc2guZGF0YQAAAAAYYzJzaEQUliz2JqnLe2vYRUqZ4lYAAACAY2JvcqVjYWxnZnNoYTI1NmNwYWRNAAAAAAAAAAAAAAAAAGRoYXNoWCD9xZ5itUfIpGITTGz86LH5ysH3jtjvaEKnEiRGGTQNlWRuYW1lbmp1bWJmIG1hbmlmZXN0amV4Y2x1c2lvbnOBomVzdGFydBieZmxlbmd0aBkeBAAAAj5qdW1iAAAAJ2p1bWRjMmNsABEAEIAAAKoAOJtxA2MycGEuY2xhaW0udjIAAAACD2Nib3KlY2FsZ2ZzaGEyNTZpc2lnbmF0dXJleE1zZWxmI2p1bWJmPS9jMnBhL3VybjpjMnBhOjM0ZTA0MmMzLTg3NDctNGZjMC05ZmYzLTEwMDc5NjZmODA5My9jMnBhLnNpZ25hdHVyZWppbnN0YW5jZUlEeCx4bXA6aWlkOmJkNzdiMGIyLTI5YzktNDRiMC05ZmFkLWZjOTg4YzRiMGQ5NnJjcmVhdGVkX2Fzc2VydGlvbnODomN1cmx4LXNlbGYjanVtYmY9YzJwYS5hc3NlcnRpb25zL2MycGEuaW5ncmVkaWVudC52M2RoYXNoWCCXBdHl4yKBv2Ku82E3US+CH3VpGRMMrP7q3bh1WGqAVKJjdXJseCpzZWxmI2p1bWJmPWMycGEuYXNzZXJ0aW9ucy9jMnBhLmFjdGlvbnMudjJkaGFzaFggHjZNo+H+TMqcndlyqB+AxpnbPvPaK71yje3MEuEljweiY3VybHgpc2VsZiNqdW1iZj1jMnBhLmFzc2VydGlvbnMvYzJwYS5oYXNoLmRhdGFkaGFzaFggj7jxM1kzIHOtPzUU9spMsD3G06qJ5uHhXnWN2+66/ix0Y2xhaW1fZ2VuZXJhdG9yX2luZm+jZG5hbWVvQW50aHJvcGljIEZpbGVzZ3ZlcnNpb25lMS4wLjBrc3BlY1ZlcnNpb25lMi40LjAAABA4anVtYgAAAChqdW1kYzJjcwARABCAAACqADibcQNjMnBhLnNpZ25hdHVyZQAAABAIY2JvctKEWQISogEmGCFZAgowggIGMIIBjaADAgECAhRA5aAK7sI50L64g/oGQgU9Z1UTADAKBggqhkjOPQQDAzBJMRcwFQYDVQQKEw5BbnRocm9waWMsIFBCQzEuMCwGA1UEAxMlQW50aHJvcGljIENvbnRlbnQgQ3JlZGVudGlhbHMgUm9vdCBDQTAeFw0yNjA4MDcxODQzNTZaFw0yODA4MDYxOTQzNTZaMEQxFzAVBgNVBAoTDkFudGhyb3BpYywgUEJDMSkwJwYDVQQDEyBBbnRocm9waWMgQ2xhdWRlIENvbnRlbnQgU2lnbmluZzBZMBMGByqGSM49AgEGCCqGSM49AwEHA0IABJh6CmvLUBgFFNU0vUKlOVtE6djd17L5SuwX0LemFisBM3dkd/3cyjxFA3Qo5S46fX0/ihY0VZ7mfb9KF703t5OjWDBWMA4GA1UdDwEB/wQEAwIHgDAVBgNVHSUEDjAMBgorBgEEAYPoXgIBMAwGA1UdEwEB/wQCMAAwHwYDVR0jBBgwFoAUzlHiBIFOZFsj+OPEz5o+nMHXXMIwCgYIKoZIzj0EAwMDZwAwZAIwMXMdFJ4BetLLVY7ORuE9noqbbAZOZn/aArXyTwFAZfKrPzxF2vPoJNf1+UCdg1XGAjBwX1zd9WGqYkqmL5SFqw1QySjr1zJfpJM9+1rdDwSPLMOPOjKuiXjoU/pUUeG9RwmhY3BhZFkNngAAAAAAAAAAAAAAAAAAAAAAAAAAAAAAAAAAAAAAAAAAAAAAAAAAAAAAAAAAAAAAAAAAAAAAAAAAAAAAAAAAAAAAAAAAAAAAAAAAAAAAAAAAAAAAAAAAAAAAAAAAAAAAAAAAAAAAAAAAAAAAAAAAAAAAAAAAAAAAAAAAAAAAAAAAAAAAAAAAAAAAAAAAAAAAAAAAAAAAAAAAAAAAAAAAAAAAAAAAAAAAAAAAAAAAAAAAAAAAAAAAAAAAAAAAAAAAAAAAAAAAAAAAAAAAAAAAAAAAAAAAAAAAAAAAAAAAAAAAAAAAAAAAAAAAAAAAAAAAAAAAAAAAAAAAAAAAAAAAAAAAAAAAAAAAAAAAAAAAAAAAAAAAAAAAAAAAAAAAAAAAAAAAAAAAAAAAAAAAAAAAAAAAAAAAAAAAAAAAAAAAAAAAAAAAAAAAAAAAAAAAAAAAAAAAAAAAAAAAAAAAAAAAAAAAAAAAAAAAAAAAAAAAAAAAAAAAAAAAAAAAAAAAAAAAAAAAAAAAAAAAAAAAAAAAAAAAAAAAAAAAAAAAAAAAAAAAAAAAAAAAAAAAAAAAAAAAAAAAAAAAAAAAAAAAAAAAAAAAAAAAAAAAAAAAAAAAAAAAAAAAAAAAAAAAAAAAAAAAAAAAAAAAAAAAAAAAAAAAAAAAAAAAAAAAAAAAAAAAAAAAAAAAAAAAAAAAAAAAAAAAAAAAAAAAAAAAAAAAAAAAAAAAAAAAAAAAAAAAAAAAAAAAAAAAAAAAAAAAAAAAAAAAAAAAAAAAAAAAAAAAAAAAAAAAAAAAAAAAAAAAAAAAAAAAAAAAAAAAAAAAAAAAAAAAAAAAAAAAAAAAAAAAAAAAAAAAAAAAAAAAAAAAAAAAAAAAAAAAAAAAAAAAAAAAAAAAAAAAAAAAAAAAAAAAAAAAAAAAAAAAAAAAAAAAAAAAAAAAAAAAAAAAAAAAAAAAAAAAAAAAAAAAAAAAAAAAAAAAAAAAAAAAAAAAAAAAAAAAAAAAAAAAAAAAAAAAAAAAAAAAAAAAAAAAAAAAAAAAAAAAAAAAAAAAAAAAAAAAAAAAAAAAAAAAAAAAAAAAAAAAAAAAAAAAAAAAAAAAAAAAAAAAAAAAAAAAAAAAAAAAAAAAAAAAAAAAAAAAAAAAAAAAAAAAAAAAAAAAAAAAAAAAAAAAAAAAAAAAAAAAAAAAAAAAAAAAAAAAAAAAAAAAAAAAAAAAAAAAAAAAAAAAAAAAAAAAAAAAAAAAAAAAAAAAAAAAAAAAAAAAAAAAAAAAAAAAAAAAAAAAAAAAAAAAAAAAAAAAAAAAAAAAAAAAAAAAAAAAAAAAAAAAAAAAAAAAAAAAAAAAAAAAAAAAAAAAAAAAAAAAAAAAAAAAAAAAAAAAAAAAAAAAAAAAAAAAAAAAAAAAAAAAAAAAAAAAAAAAAAAAAAAAAAAAAAAAAAAAAAAAAAAAAAAAAAAAAAAAAAAAAAAAAAAAAAAAAAAAAAAAAAAAAAAAAAAAAAAAAAAAAAAAAAAAAAAAAAAAAAAAAAAAAAAAAAAAAAAAAAAAAAAAAAAAAAAAAAAAAAAAAAAAAAAAAAAAAAAAAAAAAAAAAAAAAAAAAAAAAAAAAAAAAAAAAAAAAAAAAAAAAAAAAAAAAAAAAAAAAAAAAAAAAAAAAAAAAAAAAAAAAAAAAAAAAAAAAAAAAAAAAAAAAAAAAAAAAAAAAAAAAAAAAAAAAAAAAAAAAAAAAAAAAAAAAAAAAAAAAAAAAAAAAAAAAAAAAAAAAAAAAAAAAAAAAAAAAAAAAAAAAAAAAAAAAAAAAAAAAAAAAAAAAAAAAAAAAAAAAAAAAAAAAAAAAAAAAAAAAAAAAAAAAAAAAAAAAAAAAAAAAAAAAAAAAAAAAAAAAAAAAAAAAAAAAAAAAAAAAAAAAAAAAAAAAAAAAAAAAAAAAAAAAAAAAAAAAAAAAAAAAAAAAAAAAAAAAAAAAAAAAAAAAAAAAAAAAAAAAAAAAAAAAAAAAAAAAAAAAAAAAAAAAAAAAAAAAAAAAAAAAAAAAAAAAAAAAAAAAAAAAAAAAAAAAAAAAAAAAAAAAAAAAAAAAAAAAAAAAAAAAAAAAAAAAAAAAAAAAAAAAAAAAAAAAAAAAAAAAAAAAAAAAAAAAAAAAAAAAAAAAAAAAAAAAAAAAAAAAAAAAAAAAAAAAAAAAAAAAAAAAAAAAAAAAAAAAAAAAAAAAAAAAAAAAAAAAAAAAAAAAAAAAAAAAAAAAAAAAAAAAAAAAAAAAAAAAAAAAAAAAAAAAAAAAAAAAAAAAAAAAAAAAAAAAAAAAAAAAAAAAAAAAAAAAAAAAAAAAAAAAAAAAAAAAAAAAAAAAAAAAAAAAAAAAAAAAAAAAAAAAAAAAAAAAAAAAAAAAAAAAAAAAAAAAAAAAAAAAAAAAAAAAAAAAAAAAAAAAAAAAAAAAAAAAAAAAAAAAAAAAAAAAAAAAAAAAAAAAAAAAAAAAAAAAAAAAAAAAAAAAAAAAAAAAAAAAAAAAAAAAAAAAAAAAAAAAAAAAAAAAAAAAAAAAAAAAAAAAAAAAAAAAAAAAAAAAAAAAAAAAAAAAAAAAAAAAAAAAAAAAAAAAAAAAAAAAAAAAAAAAAAAAAAAAAAAAAAAAAAAAAAAAAAAAAAAAAAAAAAAAAAAAAAAAAAAAAAAAAAAAAAAAAAAAAAAAAAAAAAAAAAAAAAAAAAAAAAAAAAAAAAAAAAAAAAAAAAAAAAAAAAAAAAAAAAAAAAAAAAAAAAAAAAAAAAAAAAAAAAAAAAAAAAAAAAAAAAAAAAAAAAAAAAAAAAAAAAAAAAAAAAAAAAAAAAAAAAAAAAAAAAAAAAAAAAAAAAAAAAAAAAAAAAAAAAAAAAAAAAAAAAAAAAAAAAAAAAAAAAAAAAAAAAAAAAAAAAAAAAAAAAAAAAAAAAAAAAAAAAAAAAAAAAAAAAAAAAAAAAAAAAAAAAAAAAAAAAAAAAAAAAAAAAAAAAAAAAAAAAAAAAAAAAAAAAAAAAAAAAAAAAAAAAAAAAAAAAAAAAAAAAAAAAAAAAAAAAAAAAAAAAAAAAAAAAAAAAAAAAAAAAAAAAAAAAAAAAAAAAAAAAAAAAAAAAAAAAAAAAAAAAAAAAAAAAAAAAAAAAAAAAAAAAAAAAAAAAAAAAAAAAAAAAAAAAAAAAAAAAAAAAAAAAAAAAAAAAAAAAAAAAAAAAAAAAAAAAAAAAAAAAAAAAAAAAAAAAAAAAAAAAAAAAAAAAAAAAAAAAAAAAAAAAAAAAAAAAAAAAAAAAAAAAAAAAAAAAAAAAAAAAAAAAAAAAAAAAAAAAAAAAAAAAAAAAAAAAAAAAAAAAAAAAAAAAAAAAAAAAAAAAAAAAAAAAAAAAAAAAAAAAAAAAAAAAAAAAAAAAAAAAAAAAAAAAAAAAAAAAAAAAAAAAAAAAAAAAAAAAAAAAAAAAAAAAAAAAAAAAAAAAAAAAAAAAAAAAAAAAAAAAAAAAAAAAAAAAAAAAAAAAAAAAAAAAAAAAAAAAAAAAAAAAAAAAAAAAAAAAAAAAAAAAAAAAAAAAAAAAAAAAAAAAAAAAAAAAAAAAAAAAAAAAAAAAAAAAAAAAAAAAAAAAAAAAAAAAAAAAAAAAAAAAAAAAAAAAAAAAAAAAAAAAAAAAAAAAAAAAAAAAAAAAAAAAAAAAAAAAAAAAAAAAAAAAAAAAAAAAAAAAAAAAAAAAAAAAAAAAAAAAAAAAAAAAAAAAAAAAAAAAAAAAAAAAAAAAAAAAAAAAAAAAAAAAAAAAAAAAAAAAAAAAAAAAAAAAAAAAAAAAAAAAAAAAAAAAAAAAAAAAAAAAAAAAAAAAAAAAAAAAAAAAAAAAAAAAAAAAAAAAAAAAAAAAAAAAAAAAAAAAAAAAAAAAAAAAAAAAAAAAAAAAAAAAAAAAAAAAAAAAAAAAAAAAAAAAAAAAAAAAAAAAAAAAAAAAAAAAAAAAAAAAAAAAAAAAAAAAAAAAAAAAAAAAAAAAAAAAAAAAAAAAAAAAAAAAAAAAAAAAAAAAAAAAAAAAAAAAAAAAAAAAAAAAAAAAAAAAAAAAAAAAAAAAAAAAAAAAAAAAAAAAAAAAAAAAAAAAAAAAAAAAAAAAAAAAAAAAAAAAAAAAAAAAAAAAAAAAAAAAAAAAAAAAAAAAAAAAAAAAAAAAAAAAAAAAAAAAAAAAAAAAAAAAAAAAAAAAAAAAAAAAAAAAAAAAAAAAAAAAAAAAAAAAAAAAAAAAAAAAAAAAAAAAAAAAAAAAAAAAAAAAAAAAAAAAAAAAAAAAAAAAAAAAAAAAAAAAAAAAAAAAAAAAAAAAAAAAAAAAAAAAAAAAAAAAAAAAAAAAAAAAAAAAAAAAAAAAAAAAAAAAAAAAAAAAAAAAAAAAAAAAAAAAAAAAAAAAAAAAAAAAAAAAAAAAAAAAAAAAAAAAAAAAAAAAAAAAAAAAAAAAAAAAAAAAAAAAAAAAAAAAAAAAAAAAAAAAAAAAAAAAAAAAAAAAAAAAAAAAAAAAAAAAAAAAAAAAAAAAAAAAAAAAAAAAAAAAAAAAAAAAAAAAAAAAAAAAAAAAAAAAAAAAAAAAAAAAAAAAAAAAAAAAAAAAAAAAAAAAAAAAAAAAAAAAAAAAAAAAAAAAAAAAAAAAAAAAAAAAAAAAAAAAAAAAAAAAAAAAAAPZYQLuyU6AZe6g3zl7YNeKZfnlf3X5Z+p/CiOY0NodHDPZR8nUrQz/U2wmnp+4ZLMRLp4u5AM6bT6ZMIx/QcZ0BO2s=</c2pa:manifest></metadata><path fill="#FFCF38" d="M398.1,323.15L754.81,323.15C773.48,323.15,791.04,302.23,792.58,282.87L347.42,282.87C349.76,305.38,369.27,323.15,398.1,323.15M515.81,267.87L624.22,267.87C667.84,267.87,682.68,252.84,682.68,204.67L682.68,189.62L682.68,171.09L706.82,171.09C735.28,171.09,761.02,154.12,761.02,120.95C761.02,87.77,735.28,70,702.16,70L682.68,70L682.09,70L464.67,70C459.67,70,457.35,72.11,457.35,77.68L457.35,204.67C457.35,252.84,472.16,267.87,515.81,267.87M682.68,111.23C686.52,99.83,697.18,91.33,709.57,91.33C724.76,91.33,739.98,103.18,739.98,118.96C739.98,135.17,727.51,149.76,711.14,149.76C698.03,149.76,686.68,141.66,682.68,129.91C681.68,126.99,681.09,123.86,681.09,120.55C681.09,117.32,681.68,114.17,682.68,111.23M1070,521.18L1070,498.1L1059.81,498.1C1051.16,498.1,1049.05,493.77,1049.05,485.69L1049.05,424.17C1049.05,397.01,1034.43,381.71,1003.7,381.71C983.93,381.71,966.92,391.54,956.47,407.42C949.6,390.07,934.62,381.71,915.83,381.71C893.74,381.71,877.87,391.26,866.82,409.15L866.23,409.15L866.23,386.04L796.92,386.04L796.92,409.15L808.84,409.15C817.51,409.15,819.62,413.48,819.62,421.56L819.62,485.69C819.62,493.77,817.51,498.1,808.84,498.1L796,498.1L796,521.18L884.74,521.18L884.74,498.1L879.95,498.1C871.3,498.1,869.19,495.52,869.19,491.45L869.19,433.7C869.19,420.09,874.6,407.73,890.71,407.73C907.75,407.73,909.53,418.08,909.53,432.54L909.53,485.69C909.53,494.62,907.44,498.1,898.77,498.1L894.6,498.1L894.6,521.18L973.79,521.18L973.79,498.1L969.88,498.1C960.62,498.1,959.12,496.94,959.12,491.45L959.12,429.34C959.12,416.66,964.55,407.7,980.64,407.7C994.38,407.7,999.48,422.42,999.48,432.54L999.48,485.69C999.48,493.74,997.37,498.1,988.72,498.1L984.24,498.1L984.24,521.16L1070,521.16L1070,521.18ZM799.6,598.77L789.76,576.4L784.03,576.4L799.36,610.21L799.72,610.21L814.57,576.4L809.1,576.4L799.6,598.77ZM785.85,453.63C785.85,407.39,753.29,381.71,708.79,381.71C664.24,381.71,631.71,407.42,631.71,453.63C631.71,499.83,664.24,525.52,708.79,525.52C753.29,525.52,785.85,499.83,785.85,453.63M732.96,453.63C732.96,487.7,726.71,502.44,708.79,502.44C690.85,502.44,684.55,487.7,684.55,453.63C684.55,419.53,690.85,404.81,708.79,404.81C726.71,404.81,732.96,419.53,732.96,453.63M634.86,594.86L618.34,594.86L618.34,576.42L612.91,576.42L612.91,609.69L618.34,609.69L618.34,599.5L634.86,599.5L634.86,609.69L640.28,609.69L640.28,576.42L634.86,576.42L634.86,594.86ZM522.63,416.07C522.63,406.23,538.77,404.79,545.64,404.79C554.31,404.79,562.37,406.54,569.27,410.57C576.14,414.6,581.49,420.09,584.48,428.48L607.2,428.48L607.2,385.17L586.59,385.17L583.01,393.84C569.27,386.3,552.54,381.68,536.66,381.68C506.8,381.68,469.74,392.68,469.74,427.32C469.74,480.17,562.37,465.45,562.37,489.69C562.37,502.44,545.64,502.44,536.99,502.44C520.26,502.44,498.74,489.69,496.33,472.65L471.85,472.65L471.85,522.32L494.27,522.32L498.72,512.51C514.27,522.91,532.77,525.5,551.33,525.5C582.09,525.5,615.26,513.39,615.26,478.44C615.26,422.13,522.63,440.9,522.63,416.07M469.67,609.69L455.66,591.35L467.87,576.42L461.73,576.42L448.29,592.91L448.29,576.42L442.87,576.42L442.87,609.69L448.29,609.69L448.29,599.83L452.09,595.33L463.1,609.69L469.67,609.69ZM356.52,416.07C356.52,406.23,372.65,404.79,379.53,404.79C388.2,404.79,396.23,406.54,403.13,410.57C410,414.6,415.36,420.09,418.36,428.48L441.07,428.48L441.07,385.17L420.47,385.17L416.87,393.84C403.13,386.3,386.4,381.68,370.55,381.68C340.69,381.68,303.6,392.68,303.6,427.32C303.6,480.17,396.23,465.45,396.23,489.69C396.23,502.44,379.53,502.44,370.85,502.44C354.12,502.44,332.61,489.69,330.21,472.65L305.73,472.65L305.73,522.32L328.1,522.32L332.58,512.51C348.15,522.91,366.66,525.5,385.19,525.5C416,525.5,449.12,513.39,449.12,478.44C449.12,422.13,356.52,440.9,356.52,416.07M294.03,576.42L285.21,576.42L285.21,609.69L290.64,609.69L290.64,601.78L294,601.78C294.88,601.78,295.73,601.73,296.52,601.61L302.37,609.69L308.79,609.69L301.8,600.26C306.33,598.25,308.7,594.27,308.7,589.15C308.72,581.47,303.51,576.42,294.03,576.42M303.15,589.15C303.15,594.22,300.47,597.25,293.84,597.25L290.64,597.25L290.64,581.04L293.84,581.04C300.4,581.04,303.15,584.08,303.15,589.15M187.13,521.18L283.32,521.18L283.32,498.1L271.07,498.1C262.42,498.1,260.33,493.77,260.33,485.69L260.33,386.04L186.23,386.04L186.23,409.15L199.98,409.15C208.63,409.15,210.71,413.48,210.71,421.56L210.71,485.69C210.71,493.77,208.63,498.1,199.98,498.1L187.13,498.1L187.13,521.18ZM260.33,349.05C260.33,334.88,248.96,323.93,234.31,323.93C219.67,323.93,208.34,334.88,208.34,349.05C208.34,363.2,219.69,374.17,234.31,374.17C248.98,374.17,260.33,363.2,260.33,349.05M70.9,521.18L167.11,521.18L167.11,498.1L154.86,498.1C146.18,498.1,144.1,493.77,144.1,485.69L144.1,329.72L70,329.72L70,352.82L83.74,352.82C92.42,352.82,94.5,357.16,94.5,365.24L94.5,485.69C94.5,493.74,92.42,498.1,83.74,498.1L70.9,498.1L70.9,521.18ZM210.97,576.42L205.52,576.42L205.52,609.69L210.95,609.69L210.95,599.83L214.74,595.33L225.73,609.69L232.32,609.69L218.32,591.35L230.5,576.42L224.38,576.42L210.95,592.91L210.95,576.42L210.97,576.42ZM268.51,576.42L246.59,576.42L246.59,609.69L269.24,609.69L269.24,605.07L252.01,605.07L252.01,599.41L266.66,599.41L266.66,594.86L252.01,594.86L252.01,581.02L268.51,581.02L268.51,576.42ZM337.65,575.73L322.56,609.69L328.03,609.69L330,605.07L345.4,605.07L347.39,609.69L353.1,609.69L337.96,575.73L337.65,575.73ZM332.04,600.43L337.77,587.2C337.77,587.2,343.41,600.43,343.39,600.43L332.04,600.43ZM367.82,575.73L367.56,575.73L367.56,609.69L372.68,609.69L372.68,588.1L384.38,601.66L384.64,601.66L396.4,588.1L396.4,609.69L401.52,609.69L401.52,575.73L401.26,575.73L384.62,594.48L367.82,575.73ZM424.95,576.42L419.53,576.42L419.53,609.69L424.95,609.69L424.95,576.42ZM489.36,576.42L483.93,576.42L483.93,609.69L489.36,609.69L489.36,599.83L493.18,595.33L504.15,609.69L510.73,609.69L496.68,591.35L508.91,576.42L502.77,576.42L489.36,592.91L489.36,576.42L489.36,576.42ZM542.68,599.1C542.68,605.55,547.91,610.21,556.78,610.21C560.83,610.21,564.62,608.93,567.58,606.49L570.14,609.67L577.46,609.67L571.37,602.13C573.34,598.79,574.55,594.53,574.55,589.36L568.96,589.36C568.96,592.54,568.51,595.28,567.61,597.49L560.19,588.25C564.81,585.57,567.2,582.96,567.2,579.55C567.2,574.91,563.93,571.61,558.34,571.61C552.61,571.61,549.17,575.36,549.17,579.79C549.17,582.16,549.86,584.48,552.16,587.3C546.54,590.4,542.68,593.34,542.68,599.1M557.23,584.6L556.99,584.31C555.85,582.87,555.07,581.73,555.07,579.81C555.07,578.08,556.09,576.61,558.32,576.61C560.4,576.61,561.42,578.03,561.42,579.57C561.42,581.66,560.02,582.96,557.23,584.6M549.05,599.1C549.05,595.59,550.71,593.34,555.07,590.97L564.27,602.39C562.27,604.17,559.69,605.07,556.82,605.07C551.78,605.07,549.05,602.68,549.05,599.1M668.89,577.91L654.76,609.69L660.21,609.69L662.18,605.07L677.61,605.07L679.57,609.69L685.31,609.69L671.09,577.91C673.2,577.42,674.81,575.64,674.81,573.65C674.81,571.26,672.58,569.24,670,569.24C667.42,569.24,665.19,571.26,665.19,573.65C665.19,575.66,666.8,577.42,668.89,577.91M670,575.36C669.03,575.36,668.32,574.76,668.32,573.65C668.32,572.56,669.03,571.87,670,571.87C670.95,571.87,671.68,572.56,671.68,573.65C671.68,574.76,670.95,575.36,670,575.36M669.95,587.2C669.95,587.2,675.62,600.43,675.57,600.43L664.22,600.43L669.95,587.2ZM700.17,575.9L699.76,575.9L699.76,609.69L704.83,609.69L704.83,587.82L726.9,610.21L727.32,610.21L727.32,576.4L722.23,576.4L722.23,598.27L700.17,575.9ZM754.95,576.42L745.24,576.42L745.24,609.69L754.95,609.69C766.23,609.69,773.1,602.89,773.1,593.06C773.13,583.22,766.18,576.42,754.95,576.42M754.64,581.04C763.58,581.04,767.51,586.02,767.51,593.06C767.51,600.07,763.58,605.05,754.64,605.05L750.64,605.05L750.64,581.02L754.64,581.02ZM851,576.42L829.03,576.42L829.03,609.69L851.71,609.69L851.71,605.07L834.45,605.07L834.45,599.41L849.1,599.41L849.1,594.86L834.45,594.86L834.45,581.02L851,581.02L851,576.42ZM876.49,576.42L867.68,576.42L867.68,609.69L873.1,609.69L873.1,601.78L876.49,601.78C877.32,601.78,878.2,601.73,878.98,601.61L884.83,609.69L891.28,609.69L884.27,600.26C888.79,598.25,891.16,594.27,891.16,589.15C891.16,581.47,885.97,576.42,876.49,576.42M876.28,581.04C882.87,581.04,885.62,584.08,885.62,589.15C885.62,594.22,882.91,597.25,876.28,597.25L873.1,597.25L873.1,581.04L876.28,581.04ZM913.08,576.42L907.65,576.42L907.65,609.69L913.08,609.69L913.08,599.83L916.9,595.33L927.89,609.69L934.45,609.69L920.43,591.35L932.65,576.42L926.49,576.42L913.08,592.91L913.08,576.42ZM246.73,668.21L893.26,668.21L893.26,674.21L246.73,674.21ZM271.93,772.26L271.93,772.26C271.93,774.76,272.88,776.86,274.78,778.56C276.68,780.26,279.21,781.74,282.36,782.99C285.51,784.24,289.01,785.46,292.86,786.66C296.71,787.86,300.51,789.29,304.26,790.94C308.01,792.59,311.46,794.64,314.61,797.09C317.76,799.54,320.31,802.61,322.26,806.31C324.21,810.01,325.18,814.51,325.18,819.81L325.18,819.81C325.18,827.61,323.18,833.99,319.18,838.94C315.18,843.89,309.83,847.54,303.13,849.89C296.43,852.24,289.08,853.41,281.08,853.41L281.08,853.41C275.58,853.41,269.93,852.89,264.13,851.84C258.33,850.79,252.63,849.21,247.03,847.11L247.03,847.11L247.93,816.81L262.78,816.81L265.78,831.21C267.98,832.11,270.38,832.86,272.98,833.46L272.98,833.46C276.18,834.16,279.28,834.51,282.28,834.51L282.28,834.51C285.48,834.51,288.38,834.09,290.98,833.24C293.58,832.39,295.68,831.14,297.28,829.49C298.88,827.84,299.68,825.76,299.68,823.26L299.68,823.26C299.68,820.46,298.73,818.19,296.83,816.44C294.93,814.69,292.41,813.19,289.26,811.94C286.11,810.69,282.63,809.51,278.83,808.41C275.03,807.31,271.26,805.99,267.51,804.44C263.76,802.89,260.31,800.91,257.16,798.51C254.01,796.11,251.48,793.09,249.58,789.44C247.68,785.79,246.73,781.21,246.73,775.71L246.73,775.71C246.73,768.31,248.48,762.24,251.98,757.49C255.48,752.74,260.26,749.19,266.31,746.84C272.36,744.49,279.18,743.31,286.78,743.31L286.78,743.31C292.08,743.31,297.71,743.86,303.66,744.96C309.61,746.06,315.48,747.71,321.28,749.91L321.28,749.91L319.63,777.81L304.18,777.81L301.03,764.01C299.43,763.61,297.78,763.21,296.08,762.81L296.08,762.81C293.48,762.41,290.88,762.21,288.28,762.21L288.28,762.21C285.38,762.21,282.68,762.54,280.18,763.19C277.68,763.84,275.68,764.91,274.18,766.41C272.68,767.91,271.93,769.86,271.93,772.26ZM365.53,770.16L365.53,835.26L374.68,838.41L374.68,851.31L330.88,851.31L330.88,838.41L340.03,835.26L340.03,787.26L330.88,784.11L330.88,771.36L365.53,770.16ZM352.33,760.71L352.33,760.71C348.03,760.71,344.56,759.49,341.91,757.04C339.26,754.59,337.93,751.06,337.93,746.46L337.93,746.46C337.93,741.66,339.31,738.09,342.06,735.74C344.81,733.39,348.28,732.21,352.48,732.21L352.48,732.21C356.58,732.21,359.98,733.36,362.68,735.66C365.38,737.96,366.73,741.56,366.73,746.46L366.73,746.46C366.73,751.16,365.36,754.71,362.61,757.11C359.86,759.51,356.43,760.71,352.33,760.71ZM421.33,885.81L375.88,885.81L375.88,872.91L385.03,869.46L385.03,787.26L375.88,784.11L375.88,771.36L404.83,770.01L406.93,779.76C410.83,776.46,414.73,773.86,418.63,771.96L418.63,771.96C423.03,769.86,427.63,768.81,432.43,768.81L432.43,768.81C438.33,768.81,443.48,770.34,447.88,773.39C452.28,776.44,455.73,780.91,458.23,786.81C460.73,792.71,461.98,800.01,461.98,808.71L461.98,808.71C461.98,818.61,460.31,826.86,456.96,833.46C453.61,840.06,448.91,845.04,442.86,848.39C436.81,851.74,429.78,853.41,421.78,853.41L421.78,853.41C419.48,853.41,417.18,853.21,414.88,852.81L414.88,852.81C413.48,852.61,412.03,852.41,410.53,852.21L410.53,852.21L410.53,869.46L421.33,872.91L421.33,885.81ZM418.33,835.41L418.33,835.41C424.63,835.41,429.08,833.24,431.68,828.89C434.28,824.54,435.58,818.71,435.58,811.41L435.58,811.41C435.58,806.51,435.06,802.26,434.01,798.66C432.96,795.06,431.48,792.26,429.58,790.26C427.68,788.26,425.28,787.26,422.38,787.26L422.38,787.26C420.08,787.26,417.73,787.86,415.33,789.06L415.33,789.06C413.83,789.86,412.23,790.91,410.53,792.21L410.53,792.21L410.53,834.51C413.43,835.11,416.03,835.41,418.33,835.41ZM517.48,852.63L517.48,852.63C509.64,852.63,503.46,850.79,498.94,847.11C494.42,843.43,492.16,838.19,492.16,831.39L492.16,831.39C492.16,826.59,493.24,822.35,495.4,818.67C497.56,814.99,500.6,812.03,504.52,809.79L504.52,809.79C507.24,808.27,510.2,807.15,513.4,806.43L513.4,806.43C509.88,805.39,507.13,803.75,505.13,801.51L505.13,801.51C502.16,798.31,500.68,794.35,500.68,789.63L500.68,789.63C500.68,784.75,502.08,780.53,504.88,776.97C507.68,773.41,511.52,770.65,516.4,768.69C521.28,766.73,526.92,765.75,533.32,765.75L533.32,765.75C537.25,765.75,541.16,766.13,545.08,766.89C549,767.65,552.8,768.79,556.48,770.31L556.48,770.31L552.64,788.79L543.64,788.79L543.4,778.47C539.64,777.35,536,776.79,532.48,776.79L532.48,776.79C527.13,776.79,522.92,777.97,519.88,780.33C516.84,782.69,515.32,786.03,515.32,790.35L515.32,790.35C515.32,794.11,516.56,796.93,519.04,798.81C521.52,800.69,525.04,801.63,529.6,801.63L529.6,801.63L564.28,801.63L562.96,809.55L554.44,811.71L552.28,825.39C551.32,831.39,549.18,836.41,545.86,840.45C542.54,844.49,538.42,847.53,533.5,849.57C528.58,851.61,523.25,852.63,517.48,852.63ZM520.84,840.99L520.84,840.99C525.25,840.99,529,839.75,532.13,837.27C535.25,834.79,537.25,830.87,538.13,825.51L538.13,825.51L540.16,812.31L526,812.31C522.32,812.31,519.08,813.01,516.28,814.41C513.48,815.81,511.32,817.77,509.8,820.29C508.28,822.81,507.52,825.67,507.52,828.87L507.52,828.87C507.52,832.87,508.75,835.89,511.18,837.93C513.63,839.97,516.84,840.99,520.84,840.99ZM639.62,853.26L639.62,853.26C631.31,853.26,623.69,851.24,616.74,847.19C609.79,843.14,604.24,837.06,600.09,828.96C595.94,820.86,593.87,810.81,593.87,798.81L593.87,798.81C593.87,787.21,595.89,777.26,599.94,768.96C603.99,760.66,609.69,754.31,617.04,749.91C624.39,745.51,633.12,743.31,643.21,743.31L643.21,743.31C648.62,743.31,654.09,743.96,659.64,745.26C665.19,746.56,671.16,748.56,677.56,751.26L677.56,751.26L676.06,779.91L660.76,779.91L657.16,765.36C655.37,764.86,653.66,764.41,652.06,764.01L652.06,764.01C649.26,763.41,646.66,763.11,644.26,763.11L644.26,763.11C639.16,763.11,634.97,764.41,631.66,767.01C628.37,769.61,625.91,773.34,624.31,778.19C622.72,783.04,621.91,788.91,621.91,795.81L621.91,795.81C621.91,804.11,622.91,810.99,624.91,816.44C626.91,821.89,629.76,825.91,633.46,828.51C637.16,831.11,641.37,832.41,646.06,832.41L646.06,832.41C649.66,832.41,653.46,831.66,657.46,830.16C661.46,828.66,665.56,826.41,669.76,823.41L669.76,823.41L679.21,838.26C672.81,843.36,666.22,847.14,659.41,849.59C652.62,852.04,646.01,853.26,639.62,853.26ZM716.86,734.01L716.86,835.26L726.01,838.41L726.01,851.31L682.36,851.31L682.36,838.41L691.36,835.26L691.36,751.26L682.36,748.26L682.36,735.51L716.86,734.01ZM800.11,794.46L800.11,834.96L809.26,838.41L809.26,851.31L780.16,852.66L777.46,840.21C774.06,844.31,770.36,847.46,766.36,849.66L766.36,849.66C761.76,852.06,756.91,853.26,751.81,853.26L751.81,853.26C744.91,853.26,739.34,851.09,735.09,846.74C730.84,842.39,728.71,836.41,728.71,828.81L728.71,828.81C728.71,823.21,729.94,818.69,732.39,815.24C734.84,811.79,738.46,809.26,743.26,807.66C748.06,806.06,754.06,805.26,761.26,805.26L761.26,805.26L774.61,805.26L774.61,799.11C774.61,794.91,773.64,791.89,771.69,790.04C769.74,788.19,766.76,787.26,762.76,787.26L762.76,787.26C760.96,787.26,759.01,787.41,756.91,787.71L756.91,787.71C755.31,787.91,753.61,788.26,751.81,788.76L751.81,788.76L750.01,798.21L734.41,798.21L733.21,774.66C740.51,772.66,747.19,771.19,753.24,770.24C759.29,769.29,764.81,768.81,769.81,768.81L769.81,768.81C779.81,768.81,787.36,770.89,792.46,775.04C797.56,779.19,800.11,785.66,800.11,794.46L800.11,794.46ZM754.21,825.96L754.21,825.96C754.21,829.16,754.96,831.54,756.46,833.09C757.96,834.64,759.86,835.41,762.16,835.41L762.16,835.41C764.26,835.41,766.51,834.81,768.91,833.61L768.91,833.61C770.91,832.61,772.81,831.21,774.61,829.41L774.61,829.41L774.61,817.56L765.46,817.56C761.26,817.56,758.34,818.21,756.69,819.51C755.04,820.81,754.21,822.96,754.21,825.96ZM808.06,886.56L808.06,886.56L810.31,868.71C812.12,869.01,813.79,869.21,815.34,869.31C816.89,869.41,818.31,869.46,819.61,869.46L819.61,869.46C823.71,869.46,827.06,868.71,829.66,867.21C832.26,865.71,834.56,863.31,836.56,860.01L836.56,860.01C837.87,858.01,839.16,855.56,840.46,852.66L840.46,852.66L813.31,786.21L806.41,784.26L806.41,771.51L845.86,770.01L845.86,782.91L838.51,785.31L852.01,825.81L863.56,786.21L856.21,784.26L856.21,771.51L893.26,770.01L893.26,782.91L887.26,785.01L863.56,850.86C861.37,856.86,858.96,862.16,856.36,866.76C853.76,871.36,850.81,875.24,847.51,878.39C844.21,881.54,840.39,883.89,836.04,885.44C831.69,886.99,826.76,887.76,821.26,887.76L821.26,887.76C817.26,887.76,812.87,887.36,808.06,886.56Z"></path></svg>